<!-- icon check -->
<svg xmlns="http://www.w3.org/2000/svg" xmlns:xlink="http://www.w3.org/1999/xlink"><defs><symbol viewBox="0 0 24 24" id="icon-check"><path class="heroicon-ui" d="M12 22a10 10 0 1 1 0-20 10 10 0 0 1 0 20zm0-2a8 8 0 1 0 0-16 8 8 0 0 0 0 16zm-2.3-8.7l1.3 1.29 3.3-3.3a1 1 0 0 1 1.4 1.42l-4 4a1 1 0 0 1-1.4 0l-2-2a1 1 0 0 1 1.4-1.42z" /></symbol></defs></svg>
<!-- icon currency -->
<svg xmlns="http://www.w3.org/2000/svg" xmlns:xlink="http://www.w3.org/1999/xlink"><defs>
    <symbol viewBox="0 0 24 24" width="24" height="24" id="icon-currency"><path class="heroicon-ui" d="M12 22a10 10 0 1 1 0-20 10 10 0 0 1 0 20zm0-2a8 8 0 1 0 0-16 8 8 0 0 0 0 16zm1-11v2h1a3 3 0 0 1 0 6h-1v1a1 1 0 0 1-2 0v-1H8a1 1 0 0 1 0-2h3v-2h-1a3 3 0 0 1 0-6h1V6a1 1 0 0 1 2 0v1h3a1 1 0 0 1 0 2h-3zm-2 0h-1a1 1 0 1 0 0 2h1V9zm2 6h1a1 1 0 0 0 0-2h-1v2z"/></symbol></defs></svg>
<!-- icon e learning -->
<svg xmlns="http://www.w3.org/2000/svg" xmlns:xlink="http://www.w3.org/1999/xlink"><defs>
        <symbol viewBox="0 0 24 24" width="24" height="24" id="icon-elearning">
            <path d="M14.348,20.181A.5.5,0,0,0,13.963,20h-3.93a.5.5,0,0,0-.385.181l-2.1,2.532a.5.5,0,0,0,.409.787h8.079a.5.5,0,0,0,.41-.787Z"/><path d="M22.5.5H1.5A1.5,1.5,0,0,0,0,2V17.5A1.5,1.5,0,0,0,1.5,19h21A1.5,1.5,0,0,0,24,17.5V2A1.5,1.5,0,0,0,22.5.5ZM22,15a.5.5,0,0,1-.5.5H2.5A.5.5,0,0,1,2,15V3a.5.5,0,0,1,.5-.5h19A.5.5,0,0,1,22,3Z"/><path d="M19.654,6.372l-7-2.779a.5.5,0,0,0-.369,0l-7,2.779a.5.5,0,0,0-.316.475c0,.033.024.059.031.09a.689.689,0,0,0-.031.15V10.75a.75.75,0,0,0,1.5,0V7.72L12.3,9.779a.5.5,0,0,0,.166.029.491.491,0,0,0,.166-.029l7-2.47a.5.5,0,0,0,.019-.937Z"/><path d="M16.3,9.545,12.469,10.9,8.635,9.545a.5.5,0,0,0-.666.472v2.5a.5.5,0,0,0,.334.471l3,1.06a3.52,3.52,0,0,0,2.328,0l3-1.06a.5.5,0,0,0,.334-.471v-2.5a.5.5,0,0,0-.666-.472Z"/>
        </symbol>
    </defs>
</svg>

<!-- icon whale -->
<svg xmlns="http://www.w3.org/2000/svg" xmlns:xlink="http://www.w3.org/1999/xlink"><defs>
        <symbol viewBox="0 0 24 24" width="24" height="24" id="icon-whale">
            <path d="M23.376,1.25a3.505,3.505,0,0,0-3.484,3.156,3.394,3.394,0,0,0-1.016-.156,3.5,3.5,0,0,0-3.5,3.5.5.5,0,0,0,.5.5h2.5a2,2,0,0,1,0,4H6.876A15.879,15.879,0,0,0,.748,13.573a.925.925,0,0,0-.559.568,1.035,1.035,0,0,0,.025.783,13.472,13.472,0,0,0,.734,1.348c1.009,3.6,2.969,7.373,8.518,7.373a13.606,13.606,0,0,0,3.433-.439,8.293,8.293,0,0,1-.987-1.821c-2.421.53-5.27.406-7.037-1.545A9.107,9.107,0,0,1,3.1,16.481,10.178,10.178,0,0,1,8.343,18.53a20.564,20.564,0,0,0,3.288,1.8.75.75,0,0,1,1.472-.1,6.072,6.072,0,0,0,2.086,3.155A3.994,3.994,0,0,0,17.183,24a.448.448,0,0,0,.44-.624l-1.142-2.663a.75.75,0,0,1,1.379-.592l.3.691c.007-.012,1.563-1.2,1.563-1.2a12.442,12.442,0,0,0,4.157-8.865v-9A.5.5,0,0,0,23.376,1.25ZM9.876,16.5a1,1,0,1,1,1-1A1,1,0,0,1,9.876,16.5Z"/><path d="M3.126,4.5a1,1,0,0,0,1-1,1.5,1.5,0,0,1,3,0v6a1,1,0,0,0,2,0v-6a1.5,1.5,0,0,1,3,0,1,1,0,0,0,2,0,3.5,3.5,0,0,0-6-2.447,3.5,3.5,0,0,0-6,2.447A1,1,0,0,0,3.126,4.5Z"/>
        </symbol>
    </defs>
</svg>

<!-- icon badge -->
<svg xmlns="http://www.w3.org/2000/svg" xmlns:xlink="http://www.w3.org/1999/xlink"><defs>
        <symbol viewBox="0 0 24 24" width="24" height="24" id="icon-badge">
           <path d="M10 12a6 6 0 1 1 0-12 6 6 0 0 1 0 12zm0-3a3 3 0 1 0 0-6 3 3 0 0 0 0 6zm4 2.75V20l-4-4-4 4v-8.25a6.97 6.97 0 0 0 8 0z"/>
        </symbol>
    </defs>
</svg>


<!-- icon inbox -->
<svg xmlns="http://www.w3.org/2000/svg" xmlns:xlink="http://www.w3.org/1999/xlink"><defs>
        <symbol viewBox="0 0 24 24" width="24" height="24" id="icon-inbox">
          <path class="heroicon-ui" d="M5 3h14a2 2 0 0 1 2 2v14a2 2 0 0 1-2 2H5a2 2 0 0 1-2-2V5c0-1.1.9-2 2-2zm0 10v6h14v-6h-2.38l-1.45 2.9a2 2 0 0 1-1.79 1.1h-2.76a2 2 0 0 1-1.8-1.1L7.39 13H5zm14-2V5H5v6h2.38a2 2 0 0 1 1.8 1.1l1.44 2.9h2.76l1.45-2.9a2 2 0 0 1 1.79-1.1H19z"/>
        </symbol>
    </defs>
</svg>


<!-- icon call -->
<svg xmlns="http://www.w3.org/2000/svg" xmlns:xlink="http://www.w3.org/1999/xlink"><defs>
        <symbol viewBox="0 0 24 24" width="24" height="24" id="icon-call">
         <path class="heroicon-ui" d="M13.04 14.69l1.07-2.14a1 1 0 0 1 1.2-.5l6 2A1 1 0 0 1 22 15v5a2 2 0 0 1-2 2h-2A16 16 0 0 1 2 6V4c0-1.1.9-2 2-2h5a1 1 0 0 1 .95.68l2 6a1 1 0 0 1-.5 1.21L9.3 10.96a10.05 10.05 0 0 0 3.73 3.73zM8.28 4H4v2a14 14 0 0 0 14 14h2v-4.28l-4.5-1.5-1.12 2.26a1 1 0 0 1-1.3.46 12.04 12.04 0 0 1-6.02-6.01 1 1 0 0 1 .46-1.3l2.26-1.14L8.28 4z"/>
        </symbol>
    </defs>
</svg>
 <!-- icon facebook -->
 <svg xmlns="http://www.w3.org/2000/svg" xmlns:xlink="http://www.w3.org/1999/xlink"><defs>
         <symbol viewBox="0 0 448 512"  id="icon-facebook">
          <path d="M448 56.7v398.5c0 13.7-11.1 24.7-24.7 24.7H309.1V306.5h58.2l8.7-67.6h-67v-43.2c0-19.6 5.4-32.9 33.5-32.9h35.8v-60.5c-6.2-.8-27.4-2.7-52.2-2.7-51.6 0-87 31.5-87 89.4v49.9h-58.4v67.6h58.4V480H24.7C11.1 480 0 468.9 0 455.3V56.7C0 43.1 11.1 32 24.7 32h398.5c13.7 0 24.8 11.1 24.8 24.7z"/>
         </symbol>
     </defs>
 </svg>
<!--  icon instagram -->
<svg xmlns="http://www.w3.org/2000/svg" xmlns:xlink="http://www.w3.org/1999/xlink"><defs>
        <symbol viewBox="0 0 448 512"  id="icon-instagram">
            <path d="M224.1 141c-63.6 0-114.9 51.3-114.9 114.9s51.3 114.9 114.9 114.9S339 319.5 339 255.9 287.7 141 224.1 141zm0 189.6c-41.1 0-74.7-33.5-74.7-74.7s33.5-74.7 74.7-74.7 74.7 33.5 74.7 74.7-33.6 74.7-74.7 74.7zm146.4-194.3c0 14.9-12 26.8-26.8 26.8-14.9 0-26.8-12-26.8-26.8s12-26.8 26.8-26.8 26.8 12 26.8 26.8zm76.1 27.2c-1.7-35.9-9.9-67.7-36.2-93.9-26.2-26.2-58-34.4-93.9-36.2-37-2.1-147.9-2.1-184.9 0-35.8 1.7-67.6 9.9-93.9 36.1s-34.4 58-36.2 93.9c-2.1 37-2.1 147.9 0 184.9 1.7 35.9 9.9 67.7 36.2 93.9s58 34.4 93.9 36.2c37 2.1 147.9 2.1 184.9 0 35.9-1.7 67.7-9.9 93.9-36.2 26.2-26.2 34.4-58 36.2-93.9 2.1-37 2.1-147.8 0-184.8zM398.8 388c-7.8 19.6-22.9 34.7-42.6 42.6-29.5 11.7-99.5 9-132.1 9s-102.7 2.6-132.1-9c-19.6-7.8-34.7-22.9-42.6-42.6-11.7-29.5-9-99.5-9-132.1s-2.6-102.7 9-132.1c7.8-19.6 22.9-34.7 42.6-42.6 29.5-11.7 99.5-9 132.1-9s102.7-2.6 132.1 9c19.6 7.8 34.7 22.9 42.6 42.6 11.7 29.5 9 99.5 9 132.1s2.7 102.7-9 132.1z"/>
        </symbol>
    </defs>
</svg>

<!-- icon twitter -->
<svg xmlns="http://www.w3.org/2000/svg" xmlns:xlink="http://www.w3.org/1999/xlink"><defs>
        <symbol viewBox="0 0 512 512"  id="icon-twitter">
            <path d="M459.37 151.716c.325 4.548.325 9.097.325 13.645 0 138.72-105.583 298.558-298.558 298.558-59.452 0-114.68-17.219-161.137-47.106 8.447.974 16.568 1.299 25.34 1.299 49.055 0 94.213-16.568 130.274-44.832-46.132-.975-84.792-31.188-98.112-72.772 6.498.974 12.995 1.624 19.818 1.624 9.421 0 18.843-1.3 27.614-3.573-48.081-9.747-84.143-51.98-84.143-102.985v-1.299c13.969 7.797 30.214 12.67 47.431 13.319-28.264-18.843-46.781-51.005-46.781-87.391 0-19.492 5.197-37.36 14.294-52.954 51.655 63.675 129.3 105.258 216.365 109.807-1.624-7.797-2.599-15.918-2.599-24.04 0-57.828 46.782-104.934 104.934-104.934 30.213 0 57.502 12.67 76.67 33.137 23.715-4.548 46.456-13.32 66.599-25.34-7.798 24.366-24.366 44.833-46.132 57.827 21.117-2.273 41.584-8.122 60.426-16.243-14.292 20.791-32.161 39.308-52.628 54.253z"/>
        </symbol>
    </defs>
</svg>

<!-- icon youtube -->
<svg xmlns="http://www.w3.org/2000/svg" xmlns:xlink="http://www.w3.org/1999/xlink"><defs>
        <symbol viewBox="0 0 576 512"  id="icon-youtube">
           <path d="M549.655 124.083c-6.281-23.65-24.787-42.276-48.284-48.597C458.781 64 288 64 288 64S117.22 64 74.629 75.486c-23.497 6.322-42.003 24.947-48.284 48.597-11.412 42.867-11.412 132.305-11.412 132.305s0 89.438 11.412 132.305c6.281 23.65 24.787 41.5 48.284 47.821C117.22 448 288 448 288 448s170.78 0 213.371-11.486c23.497-6.321 42.003-24.171 48.284-47.821 11.412-42.867 11.412-132.305 11.412-132.305s0-89.438-11.412-132.305zm-317.51 213.508V175.185l142.739 81.205-142.739 81.201z"/>
        </symbol>
    </defs>
</svg>

<!-- icon youtube -->
<svg xmlns="http://www.w3.org/2000/svg" xmlns:xlink="http://www.w3.org/1999/xlink"><defs>
        <symbol  viewBox="0 0 24 24"  id="icon-plus">
          <path class="heroicon-ui" d="M17 11a1 1 0 0 1 0 2h-4v4a1 1 0 0 1-2 0v-4H7a1 1 0 0 1 0-2h4V7a1 1 0 0 1 2 0v4h4z"/>
        </symbol>
    </defs>
</svg>
